<?xml version="1.0" encoding="UTF-8"?>
<svg width="35px" height="35px" viewBox="0 0 35 35" version="1.1" xmlns="http://www.w3.org/2000/svg" xmlns:xlink="http://www.w3.org/1999/xlink">
    <!-- Generator: Sketch 51.2 (57519) - http://www.bohemiancoding.com/sketch -->
    <title>github</title>
    <desc>Created with Sketch.</desc>
    <defs></defs>
    <g id="Page-1" stroke="none" stroke-width="1" fill="none" fill-rule="evenodd">
        <g id="Mobile" transform="translate(-35.000000, -1702.000000)" fill="#FFFFFF" fill-rule="nonzero">
            <g id="github" transform="translate(35.000000, 1702.000000)">
                <path d="M17.2342925,0.0115020161 C7.71732038,0.0115020161 0,7.87690524 0,17.5820665 C0,25.3435988 4.93750611,31.929244 11.7886364,34.2522278 C12.6498228,34.414244 12.9639418,33.871744 12.9639418,33.4054536 C12.9639418,32.9888407 12.9489308,31.8840827 12.9405914,30.4174698 C8.14541178,31.4804536 7.13411535,28.0623085 7.13411535,28.0623085 C6.35131965,26.0323085 5.22160313,25.4931956 5.22160313,25.4931956 C3.65601173,24.4025504 5.33946725,24.4234375 5.33946725,24.4234375 C7.06851173,24.5470665 7.97862292,26.2349698 7.97862292,26.2349698 C9.5175281,28.9198085 12.0138013,28.1435988 12.9956317,27.6936794 C13.1507454,26.559002 13.5971835,25.7839214 14.0892107,25.3452923 C10.2630743,24.9010181 6.24012708,23.3948891 6.24012708,16.6630343 C6.24012708,14.745373 6.91117424,13.1765827 8.01364858,11.9470665 C7.83518451,11.5027923 7.24419599,9.71722782 8.18154936,7.29884073 C8.18154936,7.29884073 9.62927664,6.82690524 12.9211327,9.09964718 C14.2960288,8.71013105 15.7704423,8.51537298 17.2365164,8.50746976 C18.6992546,8.51537298 20.1747801,8.70956653 21.5519,9.09964718 C24.8409763,6.82690524 26.2864797,7.29884073 26.2864797,7.29884073 C27.2260569,9.71722782 26.6350684,11.5027923 26.4571603,11.9470665 C27.5624145,13.1765827 28.2295699,14.7448085 28.2295699,16.6630343 C28.2295699,23.4118246 24.1999511,24.896502 20.3604717,25.3323085 C20.9792583,25.8748085 21.5302175,26.9462601 21.5302175,28.5861794 C21.5302175,30.9356956 21.5096469,32.8290827 21.5096469,33.4054536 C21.5096469,33.8762601 21.8204301,34.4232762 22.6944037,34.2499698 C29.5366386,31.9224698 34.469697,25.3413407 34.469697,17.5820665 C34.469697,7.87690524 26.7523766,0.0115020161 17.2342925,0.0115020161 Z" id="SVGCleanerId_0_1_"></path>
            </g>
        </g>
    </g>
</svg>