<?xml version="1.0" encoding="UTF-8"?>
<svg width="35px" height="35px" viewBox="0 0 35 35" version="1.1" xmlns="http://www.w3.org/2000/svg" xmlns:xlink="http://www.w3.org/1999/xlink">
    <!-- Generator: Sketch 51.2 (57519) - http://www.bohemiancoding.com/sketch -->
    <title>instagram</title>
    <desc>Created with Sketch.</desc>
    <defs></defs>
    <g id="Page-1" stroke="none" stroke-width="1" fill="none" fill-rule="evenodd">
        <g id="Mobile" transform="translate(-35.000000, -1808.000000)" fill-rule="nonzero">
            <g id="instagram" transform="translate(35.000000, 1808.000000)">
                <circle id="Oval" fill="#FFFFFF" cx="17.5" cy="17.5" r="17.5"></circle>
                <g id="Group" transform="translate(7.222222, 7.222222)" fill="#313131">
                    <path d="M13.9826765,0.0317315027 L5.9511484,0.0317315027 C2.68714298,0.0317315027 0.0317315027,2.68714298 0.0317315027,5.9511484 L0.0317315027,13.9826765 C0.0317315027,17.2465463 2.68714298,19.9021612 5.9512162,19.9021612 L13.9827443,19.9021612 C17.2466141,19.9021612 19.902229,17.2466819 19.902229,13.9826765 L19.902229,5.9511484 C19.9021612,2.68714298 17.2466819,0.0317315027 13.9826765,0.0317315027 Z M17.9032121,13.9827443 C17.9032121,16.1479447 16.1479447,17.9032121 13.9827443,17.9032121 L5.9512162,17.9032121 C3.78601576,17.9032121 2.03074837,16.1479447 2.03074837,13.9827443 L2.03074837,5.9512162 C2.03074837,3.78601576 3.78601576,2.03068057 5.9512162,2.03068057 L13.9827443,2.03068057 C16.1479447,2.03068057 17.9032121,3.78608357 17.9032121,5.9512162 L17.9032121,13.9827443 Z" id="Shape"></path>
                    <path d="M9.96694635,4.82766336 C7.13321468,4.82766336 4.82766336,7.13321468 4.82766336,9.96694635 C4.82766336,12.8004746 7.13321468,15.1060259 9.96694635,15.1060259 C12.800678,15.1060259 15.1060259,12.800678 15.1060259,9.96694635 C15.1060259,7.13321468 12.800678,4.82766336 9.96694635,4.82766336 Z M9.96694635,13.1070769 C8.23262988,13.1070769 6.82661242,11.7013306 6.82661242,9.96694635 C6.82661242,8.23256208 8.23262988,6.82661242 9.96694635,6.82661242 C11.7012628,6.82661242 13.1070769,8.23249428 13.1070769,9.96694635 C13.1070769,11.7012628 11.7012628,13.1070769 9.96694635,13.1070769 Z" id="Shape"></path>
                </g>
            </g>
        </g>
    </g>
</svg>