<?xml version="1.0" encoding="UTF-8"?>
<svg width="35px" height="35px" viewBox="0 0 35 35" version="1.1" xmlns="http://www.w3.org/2000/svg" xmlns:xlink="http://www.w3.org/1999/xlink">
    <!-- Generator: Sketch 51.2 (57519) - http://www.bohemiancoding.com/sketch -->
    <title>facebook</title>
    <desc>Created with Sketch.</desc>
    <defs></defs>
    <g id="Page-1" stroke="none" stroke-width="1" fill="none" fill-rule="evenodd">
        <g id="Mobile" transform="translate(-35.000000, -1861.000000)">
            <g id="facebook" transform="translate(35.000000, 1861.000000)">
                <path d="M17.5,35 C7.83501688,35 0,27.1649831 0,17.5 C0,7.83501688 7.83501688,0 17.5,0 C27.1649831,0 35,7.83501688 35,17.5 C35,27.1649831 27.1649831,35 17.5,35 Z M24.8460882,7.4437451 L10.1539804,7.4437451 C8.65728431,7.4437451 7.44388235,8.65707843 7.44388235,10.1538431 L7.44388235,24.845951 C7.44388235,26.3427843 8.65721569,27.556049 10.1539804,27.556049 L17.3999412,27.556049 L17.4125,20.3692451 L15.5451471,20.3692451 C15.3024804,20.3692451 15.1055196,20.1729706 15.1046961,19.9303039 L15.0955686,17.6135098 C15.0946078,17.3696765 15.2923235,17.1712745 15.5361569,17.1712745 L17.4002157,17.1712745 L17.4002157,14.9327843 C17.4002157,12.335098 18.9867451,10.9206176 21.3040196,10.9206176 L23.2056863,10.9206176 C23.4488333,10.9206176 23.6462745,11.1178529 23.6462745,11.3612059 L23.6462745,13.314549 C23.6462745,13.557902 23.4490392,13.7551373 23.2059608,13.7551373 L22.0388824,13.7558235 C20.7786765,13.7558235 20.5345,14.354598 20.5345,15.2335784 L20.5345,17.171549 L23.3036863,17.171549 C23.5677647,17.171549 23.7724118,17.402 23.7411863,17.6638137 L23.4666078,19.9806078 C23.4404608,20.2024118 23.2523529,20.3693824 23.0291078,20.3693824 L20.5469902,20.3693824 L20.5344314,27.5564608 L24.8460196,27.5564608 C26.3427157,27.5564608 27.5561176,26.3429902 27.5561176,24.8462941 L27.5561176,10.1538431 C27.5561863,8.65714706 26.3427843,7.4437451 24.8460882,7.4437451 Z" id="Combined-Shape" fill="#FFFFFF" fill-rule="nonzero"></path>
                <g id="Group" transform="translate(7.411765, 7.411765)"></g>
            </g>
        </g>
    </g>
</svg>