<?xml version="1.0" encoding="UTF-8"?>
<svg width="35px" height="35px" viewBox="0 0 35 35" version="1.1" xmlns="http://www.w3.org/2000/svg" xmlns:xlink="http://www.w3.org/1999/xlink">
    <!-- Generator: Sketch 51.2 (57519) - http://www.bohemiancoding.com/sketch -->
    <title>gmail</title>
    <desc>Created with Sketch.</desc>
    <defs></defs>
    <g id="Page-1" stroke="none" stroke-width="1" fill="none" fill-rule="evenodd">
        <g id="Mobile" transform="translate(-35.000000, -1755.000000)">
            <g id="gmail" transform="translate(35.000000, 1755.000000)">
                <circle id="Oval-2" fill="#FFFFFF" cx="17.5" cy="17.5" r="17.5"></circle>
                <path d="M8.93028695,26 L26.0697131,26 C27.1340863,26 28,25.1298526 28,24.0602947 L28,11.9396211 C28,10.8700632 27.1340863,10 26.0697131,10 L8.93028695,10 C7.86591372,10 7,10.8701474 7,11.9396211 L7,24.0602947 C7,25.1298526 7.86591372,26 8.93028695,26 Z M8.25713374,11.9396211 C8.25713374,11.5660632 8.55892964,11.2631579 8.93028695,11.2631579 L26.0697131,11.2631579 C26.441238,11.2631579 26.7428663,11.5660632 26.7428663,11.9396211 L26.7428663,24.0602947 C26.7428663,24.4339368 26.4411542,24.7368421 26.0697131,24.7368421 L8.93028695,24.7368421 C8.55884583,24.7368421 8.25713374,24.4339368 8.25713374,24.0602947 L8.25713374,11.9396211 Z M10.7494433,23.8435368 L9.49230953,23.8435368 L9.49230953,12.2100211 L17.3430259,17.3312842 C17.4353833,17.3914947 17.5645329,17.3915789 17.6571417,17.3311158 L25.5077743,12.2100211 L25.5077743,23.8435368 L24.2506405,23.8435368 L24.2506405,14.5360842 L18.3415253,18.3907368 C18.090769,18.5541895 17.7997845,18.6405053 17.5,18.6405053 C17.2002155,18.6405053 16.909231,18.5541895 16.6586423,18.3908211 L10.7494433,14.5360842 L10.7494433,23.8435368 Z" id="Shape" fill="#313131" fill-rule="nonzero"></path>
            </g>
        </g>
    </g>
</svg>