<?xml version="1.0" encoding="UTF-8"?>
<svg width="35px" height="35px" viewBox="0 0 35 35" version="1.1" xmlns="http://www.w3.org/2000/svg" xmlns:xlink="http://www.w3.org/1999/xlink">
    <!-- Generator: Sketch 51.2 (57519) - http://www.bohemiancoding.com/sketch -->
    <title>twitter</title>
    <desc>Created with Sketch.</desc>
    <defs></defs>
    <g id="Page-1" stroke="none" stroke-width="1" fill="none" fill-rule="evenodd">
        <g id="Mobile" transform="translate(-35.000000, -1914.000000)" fill="#FFFFFF" fill-rule="nonzero">
            <g id="twitter" transform="translate(35.000000, 1914.000000)">
                <path d="M17.2772208,34.5544417 C7.73527525,34.5544417 0,26.8191664 0,17.2772208 C0,7.73527525 7.73527525,0 17.2772208,0 C26.8191664,0 34.5544417,7.73527525 34.5544417,17.2772208 C34.5544417,26.8191664 26.8191664,34.5544417 17.2772208,34.5544417 Z M26.8520406,10.9650287 C26.4124839,11.1600048 25.9563922,11.3137451 25.48822,11.4249672 C26.004107,10.9349285 26.3918997,10.3217897 26.610632,9.63758472 C26.6731269,9.44233863 26.4608736,9.27327832 26.2845244,9.3778865 C25.6332542,9.76426185 24.931772,10.0538578 24.1995148,10.239183 C24.1571316,10.2499812 24.1133987,10.2553803 24.0693283,10.2553803 C23.9357673,10.2553803 23.8063906,10.2059108 23.7041445,10.1160153 C22.9251848,9.42938071 21.923106,9.05123904 20.8827609,9.05123904 C20.4324733,9.05123904 19.9780689,9.12142775 19.5318981,9.25984798 C18.1492481,9.68860652 17.0823797,10.8292405 16.7474985,12.2363217 C16.6219687,12.7639518 16.5880892,13.2923918 16.6465348,13.8063891 C16.6530812,13.8655096 16.6253432,13.906678 16.6081335,13.9259799 C16.5777633,13.9598595 16.5349752,13.9793638 16.4903649,13.9793638 C16.4855057,13.9793638 16.4802415,13.9791613 16.4752473,13.9786889 C13.4486292,13.6973942 10.7193007,12.2393587 8.79032601,9.87285188 C8.69212931,9.7521138 8.50329468,9.76696141 8.4248723,9.9013323 C8.04720305,10.549633 7.84757016,11.2908663 7.84757016,12.0451924 C7.84757016,13.201079 8.31216543,14.2905563 9.11886316,15.084836 C8.77959524,15.0043214 8.45119306,14.8776443 8.14607464,14.7081116 C7.9984084,14.6261798 7.81693009,14.7317328 7.81483792,14.9005231 C7.79391629,16.6177844 8.79936956,18.1458736 10.3055248,18.8339254 C10.2751547,18.8346003 10.2447845,18.8348703 10.2144144,18.8348703 C9.97570533,18.8348703 9.73382424,18.8120589 9.4959925,18.7663688 C9.32976674,18.7348514 9.1901317,18.892371 9.2416934,19.0534001 C9.73071974,20.5798696 11.0448009,21.7049136 12.6175679,21.9601575 C11.3123953,22.8363691 9.79226984,23.2984673 8.2103918,23.2984673 L7.71731611,23.2982648 C7.56512809,23.2982648 7.43656127,23.3974064 7.39809246,23.5446002 C7.3599611,23.6893644 7.43008232,23.8424298 7.55979645,23.9178151 C9.34231972,24.9552583 11.3757001,25.5034726 13.4406655,25.5034726 C15.2482947,25.5034726 16.9391677,25.1449028 18.4663121,24.4372791 C19.8663743,23.7887759 21.1035178,22.861745 22.1435255,21.6818998 C23.1124672,20.5827716 23.8699653,19.3140432 24.3953008,17.9106739 C24.8959353,16.5733091 25.1606277,15.1458462 25.1606277,13.7834428 L25.1606277,13.7183833 C25.1606277,13.499651 25.2594993,13.2938091 25.432204,13.1534992 C26.0872537,12.6215497 26.6578069,11.9955204 27.1276663,11.2926885 C27.2518463,11.1072283 27.0561278,10.8745258 26.8520406,10.9650287 Z" id="Combined-Shape"></path>
            </g>
        </g>
    </g>
</svg>